<svg viewBox="0 0 920 660" xmlns="http://www.w3.org/2000/svg" font-family="'Inter',system-ui,sans-serif">
<defs><filter id="glow" x="-60%" y="-60%" width="220%" height="220%"><feGaussianBlur stdDeviation="3" result="b"/><feMerge><feMergeNode in="b"/><feMergeNode in="SourceGraphic"/></feMerge></filter><pattern id="grid" width="22" height="22" patternUnits="userSpaceOnUse"><path d="M22 0 L0 0 0 22" fill="none" stroke="#13243B" stroke-width=".5"/></pattern></defs>
<rect width="920" height="660" fill="#0E1526"/>
<rect width="920" height="660" fill="url(#grid)"/>
<text x="460" y="34" text-anchor="middle" fill="#E8881A" font-size="20" font-weight="600">PLAN MAISON — Smart Home IoT</text>
<text x="460" y="55" text-anchor="middle" fill="#7E9AC0" font-size="12">Plain-pied · ~100 m² · 8 pièces connectées</text>
<rect x="410" y="76" width="46" height="542" rx="6" fill="#5C7BA6" fill-opacity="0.06" stroke="#5C7BA6" stroke-width="1.2"/>
<text x="433" y="350" fill="#7E9AC0" font-size="12" letter-spacing="3" text-anchor="middle" transform="rotate(-90 433 350)">COULOIR</text>
<rect x="88" y="76" width="322" height="250" rx="8" fill="#3FB868" fill-opacity="0.1" stroke="#3FB868" stroke-width="2.4"/>
<rect x="88" y="330" width="160" height="288" rx="8" fill="#D9C32B" fill-opacity="0.1" stroke="#D9C32B" stroke-width="2.4"/>
<rect x="252" y="330" width="158" height="288" rx="8" fill="#2E9BE6" fill-opacity="0.1" stroke="#2E9BE6" stroke-width="2.4"/>
<rect x="456" y="76" width="268" height="250" rx="8" fill="#9B6BF0" fill-opacity="0.1" stroke="#9B6BF0" stroke-width="2.4"/>
<rect x="728" y="76" width="144" height="250" rx="8" fill="#E8881A" fill-opacity="0.1" stroke="#E8881A" stroke-width="2.4"/>
<rect x="456" y="330" width="268" height="288" rx="8" fill="#16C9C0" fill-opacity="0.1" stroke="#16C9C0" stroke-width="2.4"/>
<rect x="728" y="330" width="144" height="288" rx="8" fill="#E2433B" fill-opacity="0.1" stroke="#E2433B" stroke-width="2.4"/>
<rect x="24" y="160" width="52" height="166" rx="8" fill="#3FB868" fill-opacity="0.0" stroke="#3FB868" stroke-width="2.4" stroke-dasharray="8 6"/>
<rect x="110" y="100" width="118" height="56" rx="5" fill="#3FB868" fill-opacity="0.12" stroke="#3FB868" stroke-width="1.4"/>
<text x="169.0" y="132.0" text-anchor="middle" fill="#3FB868" font-size="11">Canapé</text>
<rect x="250" y="100" width="72" height="56" rx="5" fill="#3FB868" fill-opacity="0.12" stroke="#3FB868" stroke-width="1.4"/>
<text x="286.0" y="132.0" text-anchor="middle" fill="#3FB868" font-size="11">TV</text>
<rect x="122" y="184" width="92" height="50" rx="5" fill="#3FB868" fill-opacity="0.12" stroke="#3FB868" stroke-width="1.4"/>
<text x="168.0" y="213.0" text-anchor="middle" fill="#3FB868" font-size="11">Table basse</text>
<rect x="100" y="344" width="132" height="26" rx="5" fill="#D9C32B" fill-opacity="0.12" stroke="#D9C32B" stroke-width="1.4"/>
<text x="166.0" y="361.0" text-anchor="middle" fill="#D9C32B" font-size="11">Plan de travail</text>
<rect x="112" y="498" width="58" height="50" rx="5" fill="#D9C32B" fill-opacity="0.12" stroke="#D9C32B" stroke-width="1.4"/>
<text x="141.0" y="527.0" text-anchor="middle" fill="#D9C32B" font-size="11">Table</text>
<rect x="268" y="348" width="112" height="42" rx="5" fill="#2E9BE6" fill-opacity="0.12" stroke="#2E9BE6" stroke-width="1.4"/>
<text x="324.0" y="373.0" text-anchor="middle" fill="#2E9BE6" font-size="11">Baignoire</text>
<rect x="270" y="500" width="40" height="40" rx="5" fill="#2E9BE6" fill-opacity="0.12" stroke="#2E9BE6" stroke-width="1.4"/>
<text x="290.0" y="524.0" text-anchor="middle" fill="#2E9BE6" font-size="11">WC</text>
<rect x="324" y="500" width="52" height="40" rx="5" fill="#2E9BE6" fill-opacity="0.12" stroke="#2E9BE6" stroke-width="1.4"/>
<text x="350.0" y="524.0" text-anchor="middle" fill="#2E9BE6" font-size="11">Douche</text>
<rect x="494" y="94" width="206" height="84" rx="5" fill="#9B6BF0" fill-opacity="0.12" stroke="#9B6BF0" stroke-width="1.4"/>
<text x="597.0" y="140.0" text-anchor="middle" fill="#9B6BF0" font-size="11">Lit double</text>
<rect x="480" y="214" width="72" height="50" rx="5" fill="#9B6BF0" fill-opacity="0.12" stroke="#9B6BF0" stroke-width="1.4"/>
<text x="516.0" y="243.0" text-anchor="middle" fill="#9B6BF0" font-size="11">Bureau</text>
<rect x="634" y="214" width="68" height="50" rx="5" fill="#9B6BF0" fill-opacity="0.12" stroke="#9B6BF0" stroke-width="1.4"/>
<text x="668.0" y="243.0" text-anchor="middle" fill="#9B6BF0" font-size="11">Armoire</text>
<rect x="744" y="94" width="116" height="78" rx="5" fill="#E8881A" fill-opacity="0.12" stroke="#E8881A" stroke-width="1.4"/>
<text x="802.0" y="137.0" text-anchor="middle" fill="#E8881A" font-size="11">Lit simple</text>
<rect x="744" y="196" width="58" height="44" rx="5" fill="#E8881A" fill-opacity="0.12" stroke="#E8881A" stroke-width="1.4"/>
<text x="773.0" y="222.0" text-anchor="middle" fill="#E8881A" font-size="11">Bureau</text>
<rect x="494" y="346" width="206" height="78" rx="5" fill="#16C9C0" fill-opacity="0.12" stroke="#16C9C0" stroke-width="1.4"/>
<text x="597.0" y="389.0" text-anchor="middle" fill="#16C9C0" font-size="11">Lit simple</text>
<rect x="490" y="452" width="76" height="52" rx="5" fill="#16C9C0" fill-opacity="0.12" stroke="#16C9C0" stroke-width="1.4"/>
<text x="528.0" y="482.0" text-anchor="middle" fill="#16C9C0" font-size="11">Bureau</text>
<rect x="598" y="452" width="82" height="52" rx="5" fill="#16C9C0" fill-opacity="0.12" stroke="#16C9C0" stroke-width="1.4"/>
<text x="639.0" y="482.0" text-anchor="middle" fill="#16C9C0" font-size="11">Armoire</text>
<rect x="744" y="346" width="112" height="52" rx="5" fill="#E2433B" fill-opacity="0.12" stroke="#E2433B" stroke-width="1.4"/>
<text x="800.0" y="376.0" text-anchor="middle" fill="#E2433B" font-size="11">Voiture</text>
<rect x="744" y="422" width="56" height="40" rx="5" fill="#E2433B" fill-opacity="0.12" stroke="#E2433B" stroke-width="1.4"/>
<text x="772.0" y="446.0" text-anchor="middle" fill="#E2433B" font-size="11">Établi</text>
<circle cx="120" cy="402" r="16" fill="#D9C32B" fill-opacity="0.12" stroke="#D9C32B" stroke-width="1.4"/>
<text x="120" y="406" text-anchor="middle" fill="#D9C32B" font-size="9">Évier</text>
<line x1="150" y1="76" x2="205" y2="76" stroke="#7FB2F0" stroke-width="6" stroke-linecap="round"/>
<line x1="245" y1="76" x2="300" y2="76" stroke="#7FB2F0" stroke-width="6" stroke-linecap="round"/>
<line x1="515" y1="76" x2="585" y2="76" stroke="#7FB2F0" stroke-width="6" stroke-linecap="round"/>
<line x1="625" y1="76" x2="695" y2="76" stroke="#7FB2F0" stroke-width="6" stroke-linecap="round"/>
<line x1="760" y1="76" x2="840" y2="76" stroke="#7FB2F0" stroke-width="6" stroke-linecap="round"/>
<line x1="120" y1="618" x2="180" y2="618" stroke="#7FB2F0" stroke-width="6" stroke-linecap="round"/>
<line x1="300" y1="618" x2="360" y2="618" stroke="#7FB2F0" stroke-width="6" stroke-linecap="round"/>
<line x1="520" y1="618" x2="605" y2="618" stroke="#7FB2F0" stroke-width="6" stroke-linecap="round"/>
<line x1="760" y1="618" x2="840" y2="618" stroke="#7FB2F0" stroke-width="6" stroke-linecap="round"/>
<line x1="88" y1="200" x2="88" y2="265" stroke="#7FB2F0" stroke-width="6" stroke-linecap="round"/>
<circle cx="372" cy="300" r="8" fill="#5C7BA6"/><text x="372" y="303" text-anchor="middle" fill="#0E1526" font-size="8" font-weight="700">PIR</text>
<circle cx="392" cy="360" r="8" fill="#5C7BA6"/><text x="392" y="363" text-anchor="middle" fill="#0E1526" font-size="8" font-weight="700">PIR</text>
<circle cx="706" cy="300" r="8" fill="#5C7BA6"/><text x="706" y="303" text-anchor="middle" fill="#0E1526" font-size="8" font-weight="700">PIR</text>
<circle cx="742" cy="300" r="8" fill="#5C7BA6"/><text x="742" y="303" text-anchor="middle" fill="#0E1526" font-size="8" font-weight="700">PIR</text>
<circle cx="856" cy="528" r="8" fill="#5C7BA6"/><text x="856" y="531" text-anchor="middle" fill="#0E1526" font-size="8" font-weight="700">PIR</text>
<circle cx="50" cy="192" r="8" fill="#5C7BA6"/><text x="50" y="195" text-anchor="middle" fill="#0E1526" font-size="8" font-weight="700">PIR</text>
<text x="240" y="306" text-anchor="middle" fill="#3FB868" font-size="16" font-weight="600">Salon</text>
<text x="168" y="478" text-anchor="middle" fill="#D9C32B" font-size="16" font-weight="600">Cuisine</text>
<text x="331" y="452" text-anchor="middle" fill="#2E9BE6" font-size="16" font-weight="600">Salle de Bain</text>
<text x="590" y="306" text-anchor="middle" fill="#9B6BF0" font-size="16" font-weight="600">Ch. Parents</text>
<text x="800" y="306" text-anchor="middle" fill="#E8881A" font-size="16" font-weight="600">Ch. Enf. 1</text>
<text x="590" y="592" text-anchor="middle" fill="#16C9C0" font-size="16" font-weight="600">Ch. Enf. 2</text>
<text x="800" y="560" text-anchor="middle" fill="#E2433B" font-size="16" font-weight="600">Garage</text>
<text x="50" y="243" text-anchor="middle" fill="#3FB868" font-size="11" font-weight="600">Terrasse</text>
<text x="433" y="636" text-anchor="middle" fill="#9FB3D0" font-size="11">↓ Entrée principale</text>
<text x="800" y="612" text-anchor="middle" fill="#E2433B" font-size="9">Porte garage</text>
<line x1="90" y1="636" x2="120" y2="636" stroke="#7FB2F0" stroke-width="6" stroke-linecap="round"/><text x="128" y="640" fill="#9FB3D0" font-size="11">Fenêtre / baie vitrée</text>
<circle cx="270" cy="636" r="7" fill="#5C7BA6"/><text x="284" y="640" fill="#9FB3D0" font-size="11">PIR mouvement</text>
</svg>